<svg xmlns="http://www.w3.org/2000/svg" width="144" height="144" viewBox="-2.5 -2.5 30 30" shape-rendering="geometricPrecision" role="img">
  <path fill="#ffffff" fill-rule="evenodd" stroke="#112233" stroke-width="0.3" d="M25,5.3c0-0.7-0.1-4.2-1.2-5.2C23.7,0,23.6,0,23.4,0c-1.3,0.3-2.3,1.1-2.9,2.2c-1.3-0.7-2.8-0.7-4.1,0
    c-0.6-1.1-1.6-2-2.9-2.2c-0.1,0-0.3,0-0.4,0.1c-1.1,1-1.2,4.5-1.2,5.2c0,1.8,0.7,3.6,2.1,4.8c-0.4-0.2-0.8-0.4-1.1-0.7
    C11.5,8.4,9.7,7.9,7.9,8c-2.1,0-4.2,0.9-5.6,2.4C0.7,12-0.1,14.1,0,16.3c0.2,2.7,1.4,5.1,3.5,6.8C4.9,24.3,6.6,25,8.4,25
    c0.4,0,0.7,0,1.1-0.1c1-0.2,2-0.5,3-0.9c1.4-0.6,3-1,4.6-1v-1c-1.7,0-3.4,0.4-4.9,1.1c-0.9,0.4-1.9,0.7-2.8,0.9
    c-1.9,0.3-3.8-0.3-5.2-1.6C3,21.5,2.2,20.3,1.6,19h17.7c1.9,0.1,3.5-1.3,3.6-3.1c0-0.1,0-0.1,0-0.2V10C24.3,8.8,25,7.1,25,5.3z
      M13,5.3c-0.1-1.4,0.2-2.9,0.7-4.2c1,0.4,1.8,1.1,2.1,2.1c0.1,0.3,0.4,0.4,0.7,0.3c0.1,0,0.1-0.1,0.2-0.1c0.5-0.4,1.2-0.7,1.9-0.6
    c0.7,0,1.4,0.2,1.9,0.6c0.2,0.2,0.5,0.2,0.7,0c0,0,0.1-0.1,0.1-0.2c0.4-1,1.1-1.8,2.1-2.1c0.5,1.4,0.7,2.8,0.7,4.2
    c0,3-2.5,5.5-5.5,5.5S13,8.3,13,5.3z M22,15.6c0,1.3-1.1,2.4-2.5,2.4c-0.1,0-0.1,0-0.2,0h-1.7c0.9-0.7,1.4-1.8,1.4-2.9h-1
    c0,1.6-1.3,2.9-2.9,2.9H12v-1c0-1.1-0.9-2-2-2H8v-0.5C8,13.1,6.9,12,5.5,12h-1v1h1C6.3,13,7,13.7,7,14.5v1C7,15.8,7.2,16,7.5,16H10
    c0.6,0,1,0.4,1,1v1H1.3C1.1,17.4,1,16.9,1,16.3c-0.1-1.9,0.6-3.8,2-5.2C4.3,9.8,6,9,7.9,9c1.6-0.1,3.2,0.3,4.5,1.3
    c1.2,0.8,2.5,1.6,6.1,1.6l0,0c1.2,0,2.5-0.3,3.5-1V15.6z M17.1,7.7l1.2,1.3C18.4,9,18.6,9,18.7,8.9l1.2-1.2C20.1,7.5,20,7,19.7,7
    h-2.3C17,7,16.9,7.4,17.1,7.7z M16.5,4.5c0.6,0,1,0.4,1,1s-0.4,1-1,1c-0.6,0-1-0.4-1-1S15.9,4.5,16.5,4.5z M20.5,4.5
    c0.6,0,1,0.4,1,1s-0.4,1-1,1s-1-0.4-1-1S19.9,4.5,20.5,4.5z" />
  </svg>
